<?xml version="1.0" encoding="utf-8"?>
<!-- Generator: Adobe Illustrator 24.2.0, SVG Export Plug-In . SVG Version: 6.00 Build 0)  -->
<svg version="1.1" id="Layer_1" xmlns="http://www.w3.org/2000/svg" xmlns:xlink="http://www.w3.org/1999/xlink" x="0px" y="0px"
	 viewBox="0 0 308 177" style="enable-background:new 0 0 308 177;" xml:space="preserve">
<style type="text/css">
	.st0{fill:#808285;}
	.st1{fill:#FFFFFF;}
</style>
<rect x="13" y="14.3" class="st0" width="281" height="151"/>
<g>
	<g>
		<g>
			<path class="st1" d="M102.9,71.4c-9.4,0-17.1,7.6-17.1,17.1c0,9.4,7.6,17.1,17.1,17.1c9.4,0,17.1-7.6,17.1-17.1
				C120,79.1,112.3,71.4,102.9,71.4z M102.9,104.2c-8.7,0-15.7-7-15.7-15.7c0-8.7,7-15.7,15.7-15.7c8.7,0,15.7,7,15.7,15.7
				C118.7,97.2,111.6,104.2,102.9,104.2z"/>
		</g>
		<path class="st1" d="M102.9,101.3c0.6,0,0.9-0.4,1-0.9c0.1,0.2,0.3,0.4,0.5,0.5c0.2,0,0.5,0,0.7-0.1c0.2-0.1,0.4-0.3,0.5-0.5
			c0.1-0.2,0.1-0.5,0-0.7c0.3,0.4,0.7,0.5,1.2,0.3c0.6-0.3,0.8-0.7,0.5-1.3c-0.7-1.7-1.4-3.3-2.1-5c-0.1-0.2-0.1-0.3-0.2-0.5
			c-0.1-0.1-0.1-0.2-0.2-0.3c0-0.1-0.1-0.1-0.2-0.2c1.1,0.1,1.6,0.5,1.9,0.7c0.1,0.1,0.1,0.1,0.4,0c0.1,0,0.3,0,0.4,0
			c0.1,0.1,0.3,0.2,0.4,0.2c0.4,0.3,0.8,0.6,1.2,0.9c0.2,0.2,0.4,0.4,0.4,0.7c0,0.2-0.6,0.7-0.7,0.9c-0.4,0.4,0.2,1,1,1
			c-0.2-0.2-0.3-0.4-0.2-0.6c0.1,0,0.2,0,0.4-0.1c0.2-0.1,0.1-0.6,0.2-0.7c0.3-0.3,1.1-0.3,1.7-0.3c0.2,0,0.5-0.1,0.4-0.4
			c0.3,0,0.4,0.3,0.4,0.5c0.3-0.2,0.5-0.9-0.5-1.1l0,0c0.2-0.2,0.5-0.2,0.7,0c0.2-0.3-0.3-0.8-1.1-0.5c0,0-0.4-0.5-1.4,0.7
			c-0.1-0.1-0.3-0.2-0.4-0.3c-0.4-0.4-1.4-1.4-1.4-1.4c0-0.6-0.1-1.7-0.8-2.3c-0.3-0.3-0.6-0.4-1.3-0.6c0,0,0.3-0.5,0.4-0.7
			c0.6,0.6,1.8,0.8,1.8-0.2c1,1,1.9,0.4,1.9-0.2c0,0.3,0.1,0.6,0.2,0.9c0.1,0.3,0.6,1.6,1.7,1.6c0,0.4,0,1.9,1.4,2.2
			c0.1,0,0.1,0,0.2,0.1c0.6,0.7,2.9,1.4,3.1,1.2c-0.2-0.1-0.5-0.3-0.5-1.1c0-0.5-0.1-3.3-0.1-7.2c0-1.4-0.1-5.9-4.6-6.5
			c-0.7-0.1-1.3,0-1.9,0.4c-0.8,0.6-1.2,1.6-0.7,2.7c0,0,0,0.1,0,0.1c0.2,0.3,0.1,0.5-0.1,0.7c-0.4,0.4-0.8,0.6-1.3,0.7
			c-0.3,0-0.6-0.1-0.8-0.3c-0.5-0.5-0.8-1.1-1-1.8c-0.2-1.3,0.1-2,0.1-2.1c0.4-0.7,1.1-1.3,2-1.3c0.4-0.8,1.6-0.5,1.6-0.5
			c0.3,0.1,0.4,0.1,0.5,0.3c0,0,0.5-0.8,0-1.1s-1.6-0.4-1.6-0.4c0-0.5-0.8-0.9-2.4-0.6c-1.8,0.3-2.2-0.4-2.2-0.4
			c-0.1,0.9,0.6,1.3,0.8,1.5c-0.7,0.8-1.7,2.3-1.9,4.4c-0.2-2.1-1.2-3.6-1.9-4.4c0.2-0.1,0.9-0.6,0.8-1.5c0,0-0.4,0.7-2.2,0.4
			c-1.5-0.3-2.4,0.1-2.4,0.6c0,0-1.1,0.1-1.6,0.4s0,1.1,0,1.1c0.1-0.1,0.2-0.2,0.5-0.3c0,0,1.2-0.3,1.6,0.5c0.9,0.1,1.6,0.6,2,1.3
			c0,0,0.4,0.7,0.1,2.1c-0.1,0.7-0.5,1.3-1,1.8c-0.2,0.2-0.5,0.4-0.8,0.3c-0.5-0.1-0.9-0.3-1.3-0.7c-0.2-0.2-0.3-0.4-0.1-0.7
			c0,0,0-0.1,0-0.1c0.5-1.1,0.1-2.1-0.7-2.7c-0.6-0.4-1.2-0.5-1.9-0.4c-4.4,0.6-4.6,5.1-4.6,6.5c0,3.9-0.1,6.7-0.1,7.2
			c0,0.8-0.3,1-0.5,1.1c0.3,0.2,2.6-0.5,3.1-1.2c0,0,0.1-0.1,0.2-0.1c1.4-0.3,1.4-1.8,1.4-2.2c1.1,0,1.6-1.3,1.7-1.6
			c0.1-0.3,0.2-0.6,0.2-0.9c0,0.6,0.9,1.1,1.9,0.2c0,1,1.2,0.8,1.8,0.2c0.1,0.2,0.4,0.7,0.4,0.7c-0.7,0.1-1,0.3-1.3,0.6
			c-0.8,0.7-0.8,1.8-0.8,2.3c0,0-1,1-1.4,1.4c-0.1,0.1-0.3,0.2-0.4,0.3c-1.1-1.2-1.4-0.7-1.4-0.7c-0.8-0.3-1.2,0.2-1.1,0.5
			c0.2-0.2,0.5-0.1,0.7,0l0,0c-1.1,0.2-0.8,1-0.5,1.1c0-0.2,0.1-0.5,0.4-0.5c0,0.3,0.2,0.4,0.4,0.4c0.5,0,1.4,0,1.7,0.3
			c0.2,0.1,0.1,0.6,0.2,0.7c0.1,0.1,0.3,0.1,0.4,0.1c0,0.2,0,0.3-0.2,0.6c0.8,0.1,1.3-0.6,1-1c-0.2-0.2-0.7-0.7-0.7-0.9
			c0-0.2,0.2-0.5,0.4-0.7c0.4-0.3,0.8-0.6,1.2-0.9c0.1-0.1,0.2-0.2,0.4-0.2c0.1-0.1,0.3-0.1,0.4,0c0.3,0.1,0.3,0.1,0.4,0
			c0.3-0.2,0.8-0.6,1.9-0.7c-0.1,0-0.1,0.1-0.2,0.2c-0.1,0.1-0.1,0.2-0.2,0.3c-0.1,0.1-0.1,0.3-0.2,0.5c-0.7,1.7-1.4,3.3-2.1,5
			c-0.2,0.6,0,1,0.5,1.3c0.4,0.2,0.9,0.1,1.2-0.3c-0.1,0.3-0.1,0.5,0,0.7c0.1,0.2,0.3,0.4,0.5,0.5c0.2,0.1,0.5,0.1,0.7,0.1
			c0.3-0.1,0.4-0.2,0.5-0.5C102,100.9,102.3,101.3,102.9,101.3z"/>
	</g>
	<g>
		<path class="st1" d="M131.7,82.5c0.9,0,2.9-0.1,4-0.2c0,0.2,0,0.5,0,0.6c0,0.1,0,0.4,0,0.6c-1-0.1-2.6-0.2-3.1-0.2
			c-0.4,0-1.7,0-2.5,0.1v4.2h0.9c1.8,0,5.4,0.3,5.4,3.4c0,2.5-2.1,3.6-4.8,3.6c-0.3,0-1.4,0-2.2,0c-0.3,0-0.7,0-1,0
			c0.1-1.9,0.1-4.4,0.1-6.5c0-1.9,0-4.8-0.1-5.7C129.5,82.4,131.3,82.5,131.7,82.5z M130.1,93.7c0.4,0,1,0,1.4,0
			c2,0,3.1-0.9,3.1-2.7c0-1.9-1.4-2.5-4.6-2.5V93.7z"/>
		<path class="st1" d="M138.3,87.1c0.7-0.8,1.9-1.2,2.9-1.2c1.8,0,3,0.9,3,3v4.2c0,0.9,0.2,1.1,0.5,1.1c0.1,0,0.3,0,0.4-0.1l0.1,0.4
			c-0.5,0.3-1,0.3-1.3,0.3c-0.6,0-0.9-0.3-1-0.7l-0.1-0.4c-0.9,0.7-1.9,1.1-2.7,1.1c-1.5,0-2.5-0.8-2.5-2.2c0-1.5,1.1-2.2,2.7-2.5
			l1.7-0.3c0.6-0.1,0.9-0.3,0.9-0.7c0-1.8-0.8-2.3-2.1-2.3c-1,0-1.7,0.3-2.3,1.4h-0.2V87.1z M142.9,90.3l-1.1,0.2
			c-1.2,0.2-2.6,0.6-2.6,1.9c0,1,0.5,1.5,1.6,1.5c0.7,0,1.3-0.2,2-1V90.3z"/>
		<path class="st1" d="M147.6,86.2c0.2,0,0.5,0,0.8,0c-0.1,1.3-0.2,3.4-0.2,3.5c0.7,0,1.7,0.1,2.3,0.1c0.6,0,1.6,0,2.1-0.1
			c0-0.1,0-2.2-0.1-3.5c0.3,0,0.7,0,0.9,0c0.2,0,0.5,0,0.8,0c-0.1,1.3-0.2,3.4-0.2,4.3c0,0.7,0,3,0.2,4.3c-0.3,0-0.5,0-0.8,0
			c-0.3,0-0.6,0-0.9,0c0.1-1.3,0.1-3.6,0.1-4.1c-0.7-0.1-1.8-0.1-2.1-0.1c-0.5,0-1.6,0-2.3,0.1c0,0.6,0,2.8,0.2,4.1
			c-0.3,0-0.5,0-0.8,0c-0.3,0-0.6,0-0.9,0c0.1-1.3,0.2-3.6,0.2-4.3c0-0.9,0-3-0.2-4.3C147,86.1,147.4,86.2,147.6,86.2z"/>
		<path class="st1" d="M157.3,86.2c0.2,0,0.5,0,0.8,0c-0.1,1.3-0.1,3.4-0.1,3.7h0.3c0.6,0,3.4-3.2,3.7-3.7c0.2,0,0.6,0,0.8,0
			c0.2,0,0.6,0,0.8,0l-4,3.6c0.5,0.6,3.2,3.6,4.4,4.9c-0.5,0-0.8,0-1,0c-0.3,0-0.8,0-1.1,0c-0.6-1-2.5-3.2-3.6-4.4h-0.3
			c0,0.6,0,3.1,0.1,4.4c-0.2,0-0.5,0-0.8,0c-0.3,0-0.6,0-0.9,0c0.1-1.3,0.2-3.6,0.2-4.3c0-0.9,0-3-0.2-4.3
			C156.7,86.1,157,86.2,157.3,86.2z"/>
		<path class="st1" d="M171.3,82.4c0.6,0,1.3-0.1,1.8-0.1c3.1,0,4.3,0.9,4.3,3.1c0,2.7-2.3,3.6-5.1,3.6c-0.2,0-0.8,0-1.1-0.1v2.9
			c0,0.8,0,1.9,0.1,2.7c-0.3,0-0.6,0-0.9,0c-0.3,0-0.7,0-0.9,0c0.1-1.9,0.1-4.4,0.1-6.5c0-1.9,0-4.8-0.1-5.7
			C170.2,82.4,170.9,82.4,171.3,82.4z M172,88.2c2.4,0,3.7-0.9,3.7-2.7c0-1.7-1.3-2.1-3-2.1c-0.3,0-1.3,0-1.5,0v4.7
			C171.5,88.2,171.8,88.2,172,88.2z"/>
		<path class="st1" d="M186.2,90.3c0,2.6-1.7,4.5-4.3,4.5c-2.6,0-4.2-1.9-4.2-4.3c0-2.8,1.8-4.6,4.4-4.6
			C184.6,85.9,186.2,87.8,186.2,90.3z M179.3,90.5c0,1.9,0.8,3.7,2.6,3.7c1.7,0,2.7-1.7,2.7-3.9c0-1.8-0.7-3.7-2.6-3.7
			C180.2,86.6,179.3,88.5,179.3,90.5z"/>
		<path class="st1" d="M194.4,88h-0.2c-0.6-1-1.4-1.3-2.3-1.3c-2,0-2.9,1.9-2.9,3.8c0,2.1,1.2,3.8,3.3,3.8c0.7,0,1.3-0.1,2.3-1.2
			l0.2,0.2l-0.2,0.8c-0.8,0.5-1.7,0.8-2.8,0.8c-2.6,0-4.3-1.8-4.3-4.4c0-2.7,1.9-4.4,4.6-4.4c0.9,0,1.8,0.2,2.9,0.7L194.4,88z"/>
		<path class="st1" d="M203,88h-0.2c-0.6-1-1.4-1.3-2.3-1.3c-2,0-2.9,1.9-2.9,3.8c0,2.1,1.2,3.8,3.3,3.8c0.7,0,1.3-0.1,2.3-1.2
			l0.1,0.2L203,94c-0.8,0.5-1.7,0.8-2.8,0.8c-2.6,0-4.3-1.8-4.3-4.4c0-2.7,1.9-4.4,4.6-4.4c0.9,0,1.8,0.2,2.9,0.7L203,88z"/>
		<path class="st1" d="M205.5,94.6c-0.1,0-0.4,0-0.5,0c0.1-1.3,0.2-3.6,0.2-4.3c0-0.9,0-3-0.2-4.3c0.3,0,0.7,0,0.9,0
			c0.2,0,0.5,0,0.8,0c-0.1,1.3-0.2,3.4-0.2,4.3c0,0.7,0,1.7,0,2.2c0.9-1.1,4.2-5.3,5-6.4c0.2,0,0.3,0,0.5,0c0.1,0,0.5,0,0.6,0
			c-0.1,1.3-0.2,3.4-0.2,4.3c0,0.7,0,3,0.2,4.3c-0.3,0-0.5,0-0.8,0c-0.3,0-0.6,0-0.9,0c0.1-1.3,0.2-3.6,0.2-4.3c0-0.9,0-2,0-2.3
			c-1.1,1.2-4.2,5.1-5.1,6.6C205.8,94.6,205.6,94.6,205.5,94.6z"/>
		<path class="st1" d="M215,94.6c-0.1,0-0.4,0-0.5,0c0.1-1.3,0.1-3.6,0.1-4.3c0-0.9,0-3-0.1-4.3c0.3,0,0.7,0,0.9,0
			c0.2,0,0.5,0,0.8,0c-0.1,1.3-0.2,3.4-0.2,4.3c0,0.7,0,1.7,0,2.2c0.9-1.1,4.2-5.3,5-6.4c0.2,0,0.3,0,0.5,0c0.1,0,0.5,0,0.6,0
			c-0.1,1.3-0.1,3.4-0.1,4.3c0,0.7,0,3,0.1,4.3c-0.3,0-0.5,0-0.8,0c-0.3,0-0.6,0-0.9,0c0.1-1.3,0.1-3.6,0.1-4.3c0-0.9,0-2,0-2.3
			c-1.1,1.2-4.2,5.1-5.1,6.6C215.3,94.6,215.2,94.6,215,94.6z"/>
	</g>
</g>
</svg>
